<?xml version="1.0" encoding="UTF-8"?>
<svg xmlns="http://www.w3.org/2000/svg" xmlns:xlink="http://www.w3.org/1999/xlink" width="198.42pt" height="132.19pt" viewBox="0 0 198.42 132.19" version="1.1">
<defs>
<clipPath id="clip1">
  <path d="M 40 94 L 79 94 L 79 132.191406 L 40 132.191406 Z M 40 94 "/>
</clipPath>
<clipPath id="clip2">
  <path d="M 81 70 L 198.421875 70 L 198.421875 109 L 81 109 Z M 81 70 "/>
</clipPath>
</defs>
<g id="surface1">
<path style=" stroke:none;fill-rule:nonzero;fill:rgb(13.699341%,12.199402%,12.5%);fill-opacity:1;" d="M 169.789063 45.671875 L 169.789063 40.390625 L 167.78125 40.390625 L 167.78125 39.46875 L 172.847656 39.46875 L 172.847656 40.390625 L 170.824219 40.390625 L 170.824219 45.671875 Z M 173.546875 45.671875 L 173.546875 39.46875 L 175.066406 39.46875 L 176.636719 44.425781 L 178.148438 39.46875 L 179.640625 39.46875 L 179.640625 45.671875 L 178.695313 45.671875 L 178.695313 40.464844 L 177.101563 45.671875 L 176.160156 45.671875 L 174.496094 40.390625 L 174.496094 45.671875 L 173.546875 45.671875 "/>
<path style=" stroke:none;fill-rule:nonzero;fill:rgb(57.598877%,58.399963%,59.599304%);fill-opacity:1;" d="M 37.777344 42.496094 C 37.777344 52.929688 29.328125 61.386719 18.894531 61.386719 C 8.464844 61.386719 0 52.929688 0 42.496094 C 0 32.0625 8.464844 23.601563 18.894531 23.601563 C 29.328125 23.601563 37.777344 32.0625 37.777344 42.496094 "/>
<path style=" stroke:none;fill-rule:nonzero;fill:rgb(57.598877%,58.399963%,59.599304%);fill-opacity:1;" d="M 119.539063 42.496094 C 119.539063 52.929688 111.085938 61.386719 100.648438 61.386719 C 90.214844 61.386719 81.75 52.929688 81.75 42.496094 C 81.75 32.0625 90.214844 23.601563 100.648438 23.601563 C 111.085938 23.601563 119.539063 32.0625 119.539063 42.496094 "/>
<path style=" stroke:none;fill-rule:nonzero;fill:rgb(57.598877%,58.399963%,59.599304%);fill-opacity:1;" d="M 37.777344 89.6875 C 37.777344 100.125 29.328125 108.578125 18.894531 108.578125 C 8.464844 108.578125 0 100.125 0 89.6875 C 0 79.265625 8.464844 70.796875 18.894531 70.796875 C 29.328125 70.796875 37.777344 79.265625 37.777344 89.6875 "/>
<path style=" stroke:none;fill-rule:nonzero;fill:rgb(57.598877%,58.399963%,59.599304%);fill-opacity:1;" d="M 78.664063 66.09375 C 78.664063 76.53125 70.199219 84.988281 59.769531 84.988281 C 49.339844 84.988281 40.878906 76.53125 40.878906 66.09375 C 40.878906 55.660156 49.339844 47.203125 59.769531 47.203125 C 70.199219 47.203125 78.664063 55.660156 78.664063 66.09375 "/>
<path style=" stroke:none;fill-rule:nonzero;fill:rgb(57.598877%,58.399963%,59.599304%);fill-opacity:1;" d="M 78.664063 18.894531 C 78.664063 29.328125 70.199219 37.785156 59.769531 37.785156 C 49.339844 37.785156 40.878906 29.328125 40.878906 18.894531 C 40.878906 8.464844 49.339844 0 59.769531 0 C 70.199219 0 78.664063 8.464844 78.664063 18.894531 "/>
<g clip-path="url(#clip1)" clip-rule="nonzero">
<path style=" stroke:none;fill-rule:nonzero;fill:rgb(57.598877%,58.399963%,59.599304%);fill-opacity:1;" d="M 78.664063 113.296875 C 78.664063 123.726563 70.199219 132.191406 59.769531 132.191406 C 49.339844 132.191406 40.878906 123.726563 40.878906 113.296875 C 40.878906 102.859375 49.339844 94.40625 59.769531 94.40625 C 70.199219 94.40625 78.664063 102.859375 78.664063 113.296875 "/>
</g>
<g clip-path="url(#clip2)" clip-rule="nonzero">
<path style=" stroke:none;fill-rule:nonzero;fill:rgb(13.699341%,12.199402%,12.5%);fill-opacity:1;" d="M 100.59375 108.453125 C 90.15625 108.453125 81.703125 99.992188 81.703125 89.558594 C 81.703125 79.121094 90.15625 70.667969 100.59375 70.667969 L 179.527344 70.667969 C 189.96875 70.667969 198.425781 79.121094 198.425781 89.558594 C 198.425781 99.992188 189.96875 108.453125 179.527344 108.453125 L 100.59375 108.453125 "/>
</g>
<path style=" stroke:none;fill-rule:nonzero;fill:rgb(100%,100%,100%);fill-opacity:1;" d="M 106.097656 85.449219 C 105.324219 84.101563 104.085938 83.3125 102.140625 83.3125 C 98.890625 83.3125 97.03125 85.902344 97.03125 89.558594 C 97.03125 93.105469 98.925781 95.804688 102.171875 95.804688 C 104.113281 95.804688 105.261719 95.050781 106.410156 93.300781 L 110.058594 95.269531 C 108.574219 98.054688 105.980469 99.714844 102.039063 99.714844 C 96.378906 99.714844 92.574219 95.773438 92.574219 89.558594 C 92.574219 83.5625 96.535156 79.40625 102.199219 79.40625 C 106.28125 79.40625 108.769531 81.207031 110.121094 83.765625 L 106.097656 85.449219 "/>
<path style=" stroke:none;fill-rule:nonzero;fill:rgb(100%,100%,100%);fill-opacity:1;" d="M 128.480469 85.449219 C 127.703125 84.101563 126.46875 83.3125 124.515625 83.3125 C 121.265625 83.3125 119.414063 85.902344 119.414063 89.558594 C 119.414063 93.105469 121.300781 95.804688 124.554688 95.804688 C 126.503906 95.804688 127.644531 95.050781 128.792969 93.300781 L 132.441406 95.269531 C 130.960938 98.054688 128.363281 99.714844 124.425781 99.714844 C 118.761719 99.714844 114.953125 95.773438 114.953125 89.558594 C 114.953125 83.5625 118.914063 79.40625 124.578125 79.40625 C 128.667969 79.40625 131.144531 81.207031 132.507813 83.765625 L 128.480469 85.449219 "/>
<path style=" stroke:none;fill-rule:nonzero;fill:rgb(100%,100%,100%);fill-opacity:1;" d="M 149.144531 79.675781 L 139.773438 79.710938 L 139.773438 99.410156 L 144.113281 99.410156 L 144.113281 94.714844 L 149.144531 94.683594 C 153.285156 94.683594 156.652344 91.328125 156.652344 87.1875 C 156.652344 83.042969 153.285156 79.675781 149.144531 79.675781 Z M 148.078125 90.882813 L 144.113281 90.882813 L 144.113281 83.515625 L 148.078125 83.515625 C 150.128906 83.515625 151.78125 85.132813 151.78125 87.1875 C 151.78125 89.230469 150.128906 90.882813 148.078125 90.882813 "/>
</g>
</svg>
